<svg id="Layer_1" data-name="Layer 1" xmlns="http://www.w3.org/2000/svg" viewBox="0 0 1920.5 1020"><defs><style>.cls-1,.cls-5{fill:#ff4343;}.cls-1{opacity:0.13;}.cls-2{fill:#ff7f00;opacity:0.29;}.cls-3{fill:#ff5b00;opacity:0.53;}.cls-4{fill:#ffce00;opacity:0.44;}.cls-5{opacity:0.74;}</style></defs><path class="cls-1" d="M1920,396s-152.15,172.43-695,336a1308.37,1308.37,0,0,1-139.56,33.65c-148.72,27.49-302.1,12.53-443.06-42.27C559.75,691.25,375.59,623.88,334,615,170,580,28,683,0,773v307H1920Z" transform="translate(0 -60)"/><path class="cls-2" d="M0,60S253.81,781.14,697,799c0,0,19.71,1.15,46,3,39.63,2.78,94.64,6.69,123,7,292.38,3.2,368.58-39.63,576.7-124.14C1487.21,666.79,1557,654,1605,655c88.27,1.9,191.34,37.71,314.5,192.5l1,232L0,1080Z" transform="translate(0 -60)"/><path class="cls-3" d="M0,80S97,853,565,873c292.5,12.5,442-18,513.05-42.58,145.23-50.33,303.33-49.67,447.53,3.53q6.66,2.46,13.42,5c274,105,381,96,381,96v145H0Z" transform="translate(0 -60)"/><path class="cls-4" d="M0,80S42,591,141,735,418,935,497,938s322-87,333-93,163-59,268-48,334,107,359,110,131,34,263-82,200-203,200-203v458H0Z" transform="translate(0 -60)"/><path class="cls-5" d="M1920,847s-161,142-271,142c-50.53,0-211-19-327-53-141.29-41.41-266.48-8.06-320,6-99,26-350,90-432,87,0,0-234,2-355-46C64.37,923.25,0,560,0,560v520H1920Z" transform="translate(0 -60)"/></svg>